<svg xmlns="http://www.w3.org/2000/svg" width="99" height="99" viewBox="0 0 99 99">
  <g id="グループ_151" data-name="グループ 151" transform="translate(-2206 -3095)">
    <rect id="長方形_190" data-name="長方形 190" width="99" height="99" rx="8" transform="translate(2206 3095)" fill="#288e52"/>
    <g id="グループ_150" data-name="グループ 150" transform="translate(0.217 9)">
      <path id="パス_242" data-name="パス 242" d="M11.183,46.1a11.161,11.161,0,0,1-10-5.778A11.429,11.429,0,0,1,3.973,26.692L15.619,16.027a39.271,39.271,0,0,0,6.246-7.3A32.813,32.813,0,0,1,29.053.964,4.427,4.427,0,0,1,32.721.1a3.879,3.879,0,0,1,2.641,1.973L52.085,33.993a3.878,3.878,0,0,1,.119,3.295,4.434,4.434,0,0,1-2.8,2.523A32.641,32.641,0,0,1,38.931,41.3a39.351,39.351,0,0,0-9.558.978l-15.4,3.5a12.561,12.561,0,0,1-2.79.316M31.811,2.015a2.468,2.468,0,0,0-1.517.536,30.813,30.813,0,0,0-6.748,7.286,41.313,41.313,0,0,1-6.566,7.676L5.332,28.177A9.415,9.415,0,0,0,2.966,39.384a9.416,9.416,0,0,0,10.56,4.434l15.4-3.5a41.267,41.267,0,0,1,10.048-1.028,30.772,30.772,0,0,0,9.832-1.4,2.427,2.427,0,0,0,1.538-1.372,1.842,1.842,0,0,0-.043-1.587L33.577,3.006a1.842,1.842,0,0,0-1.28-.939,2.315,2.315,0,0,0-.485-.052m-2.138-.258h0Z" transform="matrix(0.883, 0.469, -0.469, 0.883, 2239.424, 3098)" fill="#fff" stroke="#fff" stroke-width="1"/>
      <path id="パス_243" data-name="パス 243" d="M7.027,17.282a5.477,5.477,0,0,1-5.379-4.554L.015,3.168A1.007,1.007,0,0,1,2,2.829l1.633,9.56a3.463,3.463,0,0,0,6.826-1.172L8.742,1.177a1.007,1.007,0,1,1,1.985-.34l1.716,10.041a5.5,5.5,0,0,1-5.417,6.4" transform="matrix(0.883, 0.469, -0.469, 0.883, 2235.422, 3142.076)" fill="#fff" stroke="#fff" stroke-width="1"/>
      <path id="パス_244" data-name="パス 244" d="M6.022,11.6a1.007,1.007,0,0,1-.786-1.637,4.9,4.9,0,0,0-4.159-7.94A1.007,1.007,0,0,1,.937.017,6.911,6.911,0,0,1,6.809,11.226a1.006,1.006,0,0,1-.787.377" transform="matrix(0.883, 0.469, -0.469, 0.883, 2274.276, 3127.698)" fill="#fff" stroke="#fff" stroke-width="1"/>
      <path id="パス_245" data-name="パス 245" d="M13.168,25.264a1.007,1.007,0,0,1-.786-1.637,13.3,13.3,0,0,0-11.3-21.58A1.007,1.007,0,0,1,.935.038,15.314,15.314,0,0,1,13.955,24.887a1.006,1.006,0,0,1-.787.377" transform="matrix(0.883, 0.469, -0.469, 0.883, 2277.712, 3120.005)" fill="#fff" stroke="#fff" stroke-width="1"/>
    </g>
  </g>
</svg>
