<svg xmlns="http://www.w3.org/2000/svg" xmlns:xlink="http://www.w3.org/1999/xlink" width="99" height="99" viewBox="0 0 99 99"><defs><linearGradient id="a" x2="1" y2="1" gradientUnits="objectBoundingBox"><stop offset="0" stop-color="#103b8c"/><stop offset="1" stop-color="#46a974"/><stop offset="1" stop-color="#295a8f"/></linearGradient></defs><g transform="translate(-1006 -5674)"><rect width="99" height="99" rx="8" transform="translate(1006 5674)" fill="url(#a)"/><g transform="translate(595 4234)"><path d="M3,3V22H22V3H3M0,0H25V25H0Z" transform="translate(465 1462)" fill="#fff"/><path d="M3,3V22H22V3H3M0,0H25V25H0Z" transform="translate(432 1462)" fill="#fff"/><path d="M3,3V22H22V3H3M0,0H25V25H0Z" transform="translate(432 1492)" fill="#fff"/><rect width="6" height="6" transform="translate(465 1492)" fill="#fff"/><rect width="7" height="6" transform="translate(483 1492)" fill="#fff"/><rect width="6" height="13" transform="translate(471 1492)" fill="#fff"/><rect width="7" height="10" transform="translate(483 1501)" fill="#fff"/><rect width="7" height="6" transform="translate(483 1511)" fill="#fff"/><rect width="6" height="6" transform="translate(465 1505)" fill="#fff"/><rect width="6" height="6" transform="translate(477 1505)" fill="#fff"/><rect width="6" height="6" transform="translate(471 1511)" fill="#fff"/><rect width="13" height="13" transform="translate(438 1498)" fill="#fff"/><rect width="13" height="13" transform="translate(438 1468)" fill="#fff"/><rect width="12" height="13" transform="translate(471 1468)" fill="#fff"/></g></g></svg>